<mxfile host="app.diagrams.net" modified="2021-06-01T06:49:41.419Z" agent="5.0 (Windows NT 10.0; Win64; x64) AppleWebKit/537.36 (KHTML, like Gecko) Chrome/91.0.4472.77 Safari/537.36" etag="JY9FXFAoMr04n0OaNqG1" version="14.7.3" type="github">
  <diagram id="C5RBs43oDa-KdzZeNtuy" name="Page-1">
    <mxGraphModel dx="414" dy="271" grid="1" gridSize="10" guides="1" tooltips="1" connect="1" arrows="1" fold="1" page="1" pageScale="1" pageWidth="827" pageHeight="1169" math="0" shadow="0">
      <root>
        <mxCell id="WIyWlLk6GJQsqaUBKTNV-0" />
        <mxCell id="WIyWlLk6GJQsqaUBKTNV-1" parent="WIyWlLk6GJQsqaUBKTNV-0" />
        <mxCell id="U44NO87bN9ao0F-O9pqY-6" value="" style="edgeStyle=orthogonalEdgeStyle;rounded=0;orthogonalLoop=1;jettySize=auto;html=1;" edge="1" parent="WIyWlLk6GJQsqaUBKTNV-1" source="WIyWlLk6GJQsqaUBKTNV-3" target="U44NO87bN9ao0F-O9pqY-1">
          <mxGeometry relative="1" as="geometry" />
        </mxCell>
        <mxCell id="WIyWlLk6GJQsqaUBKTNV-3" value="用户" style="rounded=1;whiteSpace=wrap;html=1;fontSize=12;glass=0;strokeWidth=1;shadow=0;" parent="WIyWlLk6GJQsqaUBKTNV-1" vertex="1">
          <mxGeometry x="310" y="100" width="115" height="30" as="geometry" />
        </mxCell>
        <mxCell id="U44NO87bN9ao0F-O9pqY-4" value="" style="edgeStyle=orthogonalEdgeStyle;rounded=0;orthogonalLoop=1;jettySize=auto;html=1;" edge="1" parent="WIyWlLk6GJQsqaUBKTNV-1" source="U44NO87bN9ao0F-O9pqY-1" target="U44NO87bN9ao0F-O9pqY-3">
          <mxGeometry relative="1" as="geometry" />
        </mxCell>
        <mxCell id="U44NO87bN9ao0F-O9pqY-1" value="FrontWeb" style="rounded=1;whiteSpace=wrap;html=1;" vertex="1" parent="WIyWlLk6GJQsqaUBKTNV-1">
          <mxGeometry x="312.5" y="150" width="110" height="30" as="geometry" />
        </mxCell>
        <mxCell id="U44NO87bN9ao0F-O9pqY-11" value="" style="edgeStyle=orthogonalEdgeStyle;rounded=0;orthogonalLoop=1;jettySize=auto;html=1;" edge="1" parent="WIyWlLk6GJQsqaUBKTNV-1" source="U44NO87bN9ao0F-O9pqY-3" target="U44NO87bN9ao0F-O9pqY-10">
          <mxGeometry relative="1" as="geometry" />
        </mxCell>
        <mxCell id="U44NO87bN9ao0F-O9pqY-3" value="SearchHub" style="rounded=1;whiteSpace=wrap;html=1;" vertex="1" parent="WIyWlLk6GJQsqaUBKTNV-1">
          <mxGeometry x="312.5" y="200" width="110" height="30" as="geometry" />
        </mxCell>
        <mxCell id="U44NO87bN9ao0F-O9pqY-9" value="QQ" style="rounded=1;whiteSpace=wrap;html=1;" vertex="1" parent="WIyWlLk6GJQsqaUBKTNV-1">
          <mxGeometry x="470" y="100" width="80" height="30" as="geometry" />
        </mxCell>
        <mxCell id="U44NO87bN9ao0F-O9pqY-16" style="edgeStyle=orthogonalEdgeStyle;rounded=0;orthogonalLoop=1;jettySize=auto;html=1;exitX=0.5;exitY=1;exitDx=0;exitDy=0;" edge="1" parent="WIyWlLk6GJQsqaUBKTNV-1" source="U44NO87bN9ao0F-O9pqY-10">
          <mxGeometry relative="1" as="geometry">
            <mxPoint x="368" y="330" as="targetPoint" />
          </mxGeometry>
        </mxCell>
        <mxCell id="U44NO87bN9ao0F-O9pqY-10" value="WebCache" style="rounded=1;whiteSpace=wrap;html=1;" vertex="1" parent="WIyWlLk6GJQsqaUBKTNV-1">
          <mxGeometry x="312.5" y="260" width="110" height="30" as="geometry" />
        </mxCell>
        <mxCell id="U44NO87bN9ao0F-O9pqY-18" style="edgeStyle=orthogonalEdgeStyle;rounded=0;orthogonalLoop=1;jettySize=auto;html=1;entryX=0.5;entryY=0;entryDx=0;entryDy=0;" edge="1" parent="WIyWlLk6GJQsqaUBKTNV-1" source="U44NO87bN9ao0F-O9pqY-13" target="U44NO87bN9ao0F-O9pqY-17">
          <mxGeometry relative="1" as="geometry" />
        </mxCell>
        <mxCell id="U44NO87bN9ao0F-O9pqY-13" value="Summary" style="rounded=1;whiteSpace=wrap;html=1;" vertex="1" parent="WIyWlLk6GJQsqaUBKTNV-1">
          <mxGeometry x="180" y="340" width="110" height="30" as="geometry" />
        </mxCell>
        <mxCell id="U44NO87bN9ao0F-O9pqY-14" value="Query" style="rounded=1;whiteSpace=wrap;html=1;" vertex="1" parent="WIyWlLk6GJQsqaUBKTNV-1">
          <mxGeometry x="425" y="340" width="110" height="30" as="geometry" />
        </mxCell>
        <mxCell id="U44NO87bN9ao0F-O9pqY-17" value="Summary" style="rounded=1;whiteSpace=wrap;html=1;" vertex="1" parent="WIyWlLk6GJQsqaUBKTNV-1">
          <mxGeometry x="180" y="400" width="110" height="30" as="geometry" />
        </mxCell>
      </root>
    </mxGraphModel>
  </diagram>
</mxfile>
